<?xml version="1.0" standalone="no"?>
<!DOCTYPE svg PUBLIC "-//W3C//DTD SVG 20010904//EN"
 "http://www.w3.org/TR/2001/REC-SVG-20010904/DTD/svg10.dtd">
<svg version="1.0" xmlns="http://www.w3.org/2000/svg"
 width="1280.000000pt" height="1280.000000pt" viewBox="0 0 1280.000000 1280.000000"
 preserveAspectRatio="xMidYMid meet">
<metadata>
Created by potrace 1.14, written by Peter Selinger 2001-2017
</metadata>
<g transform="translate(0.000000,1280.000000) scale(0.100000,-0.100000)"
fill="#000000" stroke="none">
<path d="M599 11296 c-3 -3 -21 -7 -39 -10 -57 -7 -232 -75 -250 -96 -3 -3
-23 -19 -45 -35 -65 -48 -134 -124 -166 -183 -32 -60 -35 -65 -53 -102 -48
-102 -46 88 -45 -3940 1 -3921 0 -3838 39 -3915 5 -11 14 -33 20 -48 20 -57
101 -166 162 -220 138 -121 268 -172 465 -182 40 -2 78 -7 84 -11 8 -4 9 -3 5
4 -5 9 -1 10 16 4 13 -5 47 -8 76 -8 28 1 52 -1 52 -4 0 -3 24 -5 52 -4 29 1
61 -3 70 -8 12 -6 18 -5 18 2 0 6 5 8 10 5 6 -4 43 -9 83 -11 80 -6 142 -11
142 -14 0 -1 32 -3 70 -6 39 -2 88 -6 110 -9 22 -2 69 -7 105 -10 36 -3 85 -8
110 -10 25 -3 63 -7 85 -10 22 -2 40 -4 40 -5 0 -1 16 -3 35 -4 33 -2 119 -12
185 -22 17 -2 48 -6 71 -9 22 -2 54 -6 70 -9 16 -3 56 -8 89 -12 33 -3 69 -8
80 -10 11 -2 40 -7 65 -10 25 -3 56 -8 70 -10 14 -3 39 -7 55 -9 48 -8 85 -14
155 -25 36 -6 77 -12 91 -15 14 -2 64 -11 110 -20 46 -9 100 -18 119 -21 67
-10 80 -13 88 -18 4 -2 28 -7 52 -10 25 -3 63 -10 85 -15 22 -6 40 -10 40 -10
0 0 11 -2 25 -5 14 -3 37 -8 53 -11 26 -5 46 -9 97 -20 14 -4 36 -8 50 -11 14
-3 32 -7 40 -9 8 -2 17 -4 20 -5 3 -1 8 -2 11 -2 4 1 22 -3 40 -9 19 -6 45
-12 59 -15 46 -9 294 -73 385 -99 50 -14 95 -27 100 -29 6 -1 30 -9 55 -16 25
-8 47 -14 50 -15 3 -1 25 -7 50 -14 25 -7 68 -21 96 -31 29 -10 55 -16 58 -13
3 4 6 0 6 -7 0 -7 3 -11 6 -8 3 4 21 0 40 -8 19 -8 36 -14 39 -14 6 -1 29 -8
52 -17 10 -3 21 -7 26 -8 4 -2 8 -3 10 -5 1 -1 9 -3 17 -5 8 -2 29 -9 45 -16
17 -6 35 -13 42 -15 24 -5 379 -148 411 -166 18 -10 39 -18 47 -18 8 0 15 -4
15 -9 0 -8 47 -25 52 -19 2 2 18 -7 36 -20 17 -13 32 -20 32 -15 0 4 4 3 8 -2
4 -6 41 -26 82 -44 190 -85 385 -23 478 152 l27 52 0 4070 0 4070 -22 48 c-13
27 -29 55 -37 62 -8 8 -16 18 -18 22 -10 23 -144 111 -283 185 -120 64 -410
205 -440 214 -5 1 -70 28 -144 60 -74 31 -139 57 -145 58 -6 1 -22 8 -36 16
-14 7 -25 12 -25 11 0 -3 -30 7 -61 19 -37 15 -266 92 -283 95 -9 2 -29 9 -46
15 -16 6 -37 13 -45 16 -8 2 -69 20 -135 39 -66 20 -144 43 -172 51 -116 31
-169 45 -183 49 -8 1 -33 8 -55 14 -22 6 -51 12 -65 15 -14 2 -25 5 -25 6 0 2
-21 7 -60 15 -16 3 -48 11 -70 16 -22 5 -52 11 -68 14 -15 2 -31 7 -36 9 -5 3
-26 8 -47 11 -22 4 -52 10 -69 15 -16 4 -48 12 -70 16 -22 4 -44 8 -50 9 -5 2
-23 5 -40 8 -16 3 -64 12 -105 21 -41 8 -92 17 -114 20 -21 4 -41 8 -45 11 -4
2 -27 6 -52 9 -24 3 -80 12 -124 20 -44 8 -98 18 -120 21 -23 3 -52 7 -65 10
-13 3 -42 7 -65 10 -22 3 -51 8 -65 10 -14 3 -43 7 -65 10 -22 2 -56 7 -75 10
-55 9 -101 15 -155 21 -67 7 -93 11 -105 19 -5 3 -10 0 -10 -7 0 -8 -3 -9 -8
-3 -4 6 -20 12 -37 13 -42 2 -110 10 -110 12 0 1 -18 3 -40 5 -22 2 -62 6 -90
9 -27 3 -75 8 -105 11 -30 3 -73 7 -95 9 -22 3 -69 7 -105 10 -36 4 -92 9
-125 12 -33 3 -82 7 -110 9 -27 2 -81 7 -120 10 -150 14 -489 28 -496 21z"/>
<path d="M11717 11294 c-2 -3 -56 -7 -222 -19 -22 -1 -80 -6 -130 -10 -49 -4
-110 -9 -135 -10 -25 -2 -45 -4 -45 -5 0 -1 -22 -3 -50 -5 -27 -2 -81 -7 -120
-11 -38 -4 -85 -8 -102 -8 -18 -1 -33 -3 -33 -6 0 -3 -15 -5 -33 -6 -31 -1
-109 -9 -172 -17 -28 -4 -126 -16 -185 -23 -92 -10 -119 -13 -145 -18 -17 -2
-51 -7 -76 -10 -25 -4 -57 -9 -70 -11 -13 -2 -44 -6 -69 -9 -25 -3 -97 -14
-160 -25 -63 -11 -133 -23 -155 -26 -22 -4 -47 -8 -55 -10 -8 -2 -33 -7 -55
-10 -44 -6 -53 -7 -165 -30 -41 -8 -91 -17 -110 -20 -19 -4 -55 -11 -80 -16
-25 -6 -54 -12 -65 -15 -68 -13 -142 -29 -190 -39 -11 -3 -29 -7 -40 -9 -11
-2 -58 -14 -105 -25 -47 -12 -95 -23 -107 -26 -34 -7 -48 -11 -158 -40 -195
-51 -242 -64 -271 -75 -16 -6 -29 -11 -29 -10 0 1 -40 -10 -89 -25 -49 -15
-94 -28 -100 -30 -6 -1 -18 -5 -26 -8 -23 -10 -114 -39 -125 -41 -5 -1 -23 -7
-40 -13 -63 -24 -71 -26 -89 -30 -11 -2 -24 -7 -30 -12 -6 -4 -23 -11 -37 -14
-14 -4 -43 -14 -65 -24 -21 -10 -43 -18 -49 -19 -5 0 -23 -6 -38 -12 -16 -7
-52 -22 -80 -33 -156 -64 -352 -152 -358 -162 -3 -5 -8 -8 -10 -7 -2 1 -17 -4
-34 -11 -16 -7 -33 -12 -37 -11 -5 1 -8 -2 -8 -6 0 -5 -17 -16 -39 -25 -60
-27 -280 -149 -336 -187 -91 -62 -135 -132 -150 -235 -2 -11 -4 -20 -5 -20 -1
0 -1 -45 -1 -100 1 -55 1 -109 1 -120 0 -11 -1 -52 -1 -90 0 -39 0 -75 1 -80
2 -6 1 -14 0 -20 -7 -32 -4 -182 4 -177 5 3 6 -1 1 -8 -7 -11 -11 -246 -5
-275 1 -5 1 -14 0 -20 -3 -13 -3 -287 0 -300 1 -5 1 -14 0 -20 -3 -13 -3 -287
0 -300 1 -5 1 -14 0 -20 -3 -13 -3 -287 0 -300 1 -5 1 -14 0 -20 -3 -13 -3
-287 0 -300 1 -5 1 -14 0 -20 -3 -13 -3 -287 0 -300 1 -5 1 -14 0 -20 -3 -13
-3 -287 0 -300 1 -5 1 -14 0 -20 -3 -13 -3 -287 0 -300 1 -5 1 -14 0 -20 -3
-13 -3 -447 0 -460 1 -5 1 -14 0 -20 -7 -32 -4 -182 4 -177 5 3 6 -1 1 -8 -9
-15 -11 -392 -2 -407 4 -7 4 -14 0 -16 -7 -4 -9 -132 -3 -147 1 -3 1 -9 0 -15
-3 -12 -3 -155 0 -170 1 -5 1 -14 0 -20 -7 -32 -4 -182 4 -177 5 3 6 -1 1 -8
-9 -15 -11 -392 -2 -407 4 -7 4 -14 0 -16 -7 -4 -9 -132 -3 -147 1 -3 1 -9 0
-15 -3 -12 -3 -155 0 -170 1 -5 1 -14 0 -20 -7 -32 -4 -182 4 -177 5 3 6 -1 1
-8 -7 -11 -11 -246 -5 -275 1 -5 1 -14 0 -20 -3 -13 -3 -287 0 -300 1 -5 1
-14 0 -20 -3 -13 -3 -287 0 -300 1 -5 1 -14 0 -20 -3 -13 -3 -287 0 -300 1 -5
1 -14 0 -20 -3 -13 -3 -447 0 -460 1 -5 1 -14 0 -20 -7 -32 -4 -182 4 -177 5
3 6 -1 1 -8 -12 -19 -8 -389 5 -435 6 -22 12 -46 12 -52 1 -7 5 -13 9 -13 4 0
10 -8 14 -19 7 -23 78 -101 93 -101 6 0 12 -4 14 -8 2 -4 26 -19 53 -32 41
-19 66 -23 140 -24 59 0 99 5 115 14 14 8 30 13 36 12 6 -1 17 5 24 13 7 8 21
15 31 15 11 0 19 4 19 9 0 5 10 12 23 16 12 4 24 8 27 10 14 6 130 59 165 75
22 10 58 26 80 35 22 9 49 21 60 26 76 32 145 57 145 51 0 -4 4 -1 8 5 4 7 17
14 27 16 11 1 26 6 33 11 7 4 25 11 40 16 15 4 64 22 109 38 45 17 84 28 87
24 3 -3 6 1 6 8 0 7 3 11 6 7 4 -3 22 0 42 8 19 8 46 17 61 20 14 2 27 9 29
15 2 5 7 8 11 6 4 -3 66 13 137 35 128 40 446 127 493 136 13 2 32 8 41 13 10
5 20 7 22 4 3 -2 16 0 30 5 14 5 38 12 54 15 16 3 47 10 69 15 22 5 51 12 65
15 14 3 36 8 50 11 14 3 36 8 50 11 14 3 52 11 85 19 33 7 76 16 95 19 19 3
46 8 60 12 14 3 34 7 45 8 11 2 20 4 20 5 0 1 16 4 35 6 38 5 75 12 75 15 0 1
11 3 25 4 14 2 43 6 65 10 22 5 49 10 60 11 11 2 47 8 80 14 33 6 76 13 95 16
19 4 49 8 65 11 17 2 39 6 51 8 12 2 45 7 74 11 29 4 62 9 74 11 40 8 111 17
143 18 18 1 33 3 33 6 0 3 10 5 23 6 29 1 156 16 234 28 21 3 65 8 98 11 61 6
113 11 175 20 39 5 138 15 215 20 28 2 50 5 50 6 0 1 20 3 45 4 25 1 45 3 45
4 0 1 36 4 80 7 102 7 160 12 160 14 0 2 191 12 262 14 35 0 63 3 63 6 0 3 30
6 68 7 64 1 147 9 147 13 0 1 9 3 20 5 48 8 72 17 152 55 85 42 113 61 188
135 47 46 119 148 130 185 4 14 12 30 17 36 5 7 11 21 13 33 6 28 14 60 23 91
8 32 8 7561 0 7615 -10 60 -24 109 -42 145 -9 18 -16 39 -16 47 0 7 -4 13 -10
13 -5 0 -10 5 -10 12 0 12 -71 108 -106 142 -29 30 -111 96 -118 96 -4 0 -24
11 -45 24 -21 14 -42 22 -45 19 -3 -4 -6 -2 -6 3 0 5 -21 16 -47 23 -27 7 -55
15 -63 18 -8 3 -22 8 -30 11 -17 5 -308 10 -313 6z"/>
</g>
</svg>
